<?xml version="1.0" encoding="iso-8859-1"?>
<!-- Generator: Adobe Illustrator 19.0.0, SVG Export Plug-In . SVG Version: 6.00 Build 0)  -->
<svg version="1.1" id="Layer_1" xmlns="http://www.w3.org/2000/svg" xmlns:xlink="http://www.w3.org/1999/xlink" x="0px" y="0px"
	 viewBox="0 0 511.999 511.999" style="enable-background:new 0 0 511.999 511.999;" xml:space="preserve">
<path style="fill:#DBE7F2;" d="M105.459,66.039C145.958-4.585,371.554-7.06,460.897,38.479c19.41,9.893,25.047,35.017,12.05,52.499
	c-47.916,64.45-146.79,208.085-146.053,393.097c0.066,16.577-19.026,25.929-32.104,15.743
	C120.853,364.346,65.146,136.34,105.459,66.039z"/>
<path style="fill:#D5EBEF;" d="M105.459,66.039C145.958-4.585,371.554-7.06,460.897,38.479c19.41,9.893,25.047,35.017,12.05,52.499
	c-47.916,64.45-146.79,208.085-146.053,393.097c0.066,16.577-19.026,25.929-32.104,15.743
	C120.853,364.346,65.146,136.34,105.459,66.039z"/>
<path style="opacity:0.07;enable-background:new    ;" d="M214.967,422.428c38.226,5.326,79.577,7.752,115.269,0.701
	c4.294-37.97,12.462-73.799,22.985-107.097c-53.346,36.13-116.702,53.344-173.22,59.742
	C190.642,391.626,202.288,407.248,214.967,422.428z M94.334,103.431c-5.707,46.301,6.452,114.823,38.199,186.414
	c64.292,4.912,150.037,1.114,241.284-29.624c9.999-23.69,20.887-45.689,31.931-65.806
	C280.377,200.116,155.865,142.944,94.334,103.431z"/>
<path style="opacity:0.1;enable-background:new    ;" d="M310.567,484.038C136.632,348.566,80.925,120.561,121.239,50.26
	c0.82-1.429,1.723-2.828,2.692-4.202c-7.941,5.928-14.226,12.579-18.471,19.981c-40.313,70.301,15.394,298.307,189.328,433.779
	c12.035,9.374,29.15,2.196,31.755-11.926C321.259,488.936,315.488,487.871,310.567,484.038z"/>
<ellipse style="opacity:0.1;enable-background:new    ;" cx="293.325" cy="62.389" rx="132.943" ry="30.821"/>
<path d="M164.271,218.62l-25.446-12.193c-3.959-1.897-8.709-0.225-10.607,3.735s-0.226,8.709,3.735,10.607l10.137,4.857
	c-0.246,0.767-0.382,1.582-0.382,2.43v8.78c0,4.392,3.56,7.952,7.952,7.952c4.391,0,7.952-3.56,7.952-7.952v-3.787
	c1.045,0.464,2.137,0.694,3.217,0.694c2.964,0,5.81-1.666,7.177-4.518C169.904,225.267,168.232,220.518,164.271,218.62z
	 M351.447,206.427l-25.446,12.193c-3.961,1.898-5.633,6.647-3.735,10.607c1.367,2.853,4.212,4.518,7.177,4.518
	c1.079,0,2.171-0.23,3.217-0.694v3.787c0,4.392,3.56,7.952,7.952,7.952c4.392,0,7.952-3.56,7.952-7.952v-8.78
	c0-0.848-0.136-1.664-0.382-2.43l10.137-4.857c3.961-1.898,5.633-6.647,3.735-10.607
	C360.157,206.201,355.409,204.529,351.447,206.427z M286.478,259.771c-4.392,0-7.952,3.56-7.952,7.952
	c0,7.013-5.706,12.72-12.72,12.72s-12.72-5.706-12.72-12.72c0-4.392-3.56-7.952-7.952-7.952s-7.952,3.56-7.952,7.952
	c0,7.013-5.705,12.72-12.719,12.72s-12.72-5.706-12.72-12.72c0-4.392-3.56-7.952-7.952-7.952c-4.391,0-7.952,3.56-7.952,7.952
	c0,15.783,12.841,28.623,28.623,28.623c8.117,0,15.457-3.397,20.67-8.843c5.214,5.448,12.553,8.843,20.671,8.843
	c15.783,0,28.623-12.841,28.623-28.623C294.43,263.331,290.87,259.771,286.478,259.771z M465.164,115.169
	c5.021-7.055,9.78-13.552,14.163-19.448c7.655-10.296,10.367-23.368,7.441-35.863c-2.893-12.354-11.006-22.729-22.261-28.465
	C420.166,8.793,341.64-3.235,264.452,0.757c-40.505,2.094-137.754,12.261-165.89,61.327c-2.868,5.002-5.264,10.681-7.214,16.934
	c-44.222,7.618-66.235,19.54-67.233,36.392c-0.738,12.457,10.204,23.476,33.451,33.685c8.333,3.66,18.245,7.189,29.48,10.523
	c3.606,31.189,12.091,66.015,25.279,101.632c0.071,0.193,0.148,0.385,0.219,0.578c-26.151,10.475-38.315,21.537-37.113,33.71
	c0.029,0.286,0.075,0.566,0.133,0.843c1.498,10.016,11.759,17.369,31.379,22.442c9.138,2.363,20.41,4.248,33.359,5.604
	c7.822,15.096,16.327,29.827,25.445,44.132c-20.868,6.147-31.135,14.328-31.283,24.879c-0.16,11.39,11.514,20.327,35.692,27.32
	c11.146,3.224,24.692,5.919,39.727,7.954c24.162,28.727,51.022,54.792,80.02,77.378c5.017,3.908,11.008,5.908,17.063,5.908
	c4.177,0,8.384-0.952,12.324-2.887c9.638-4.733,15.598-14.339,15.555-25.069c-0.137-34.395,3.244-69.041,10.099-103.752
	c34.975,6.436,44.784,14.749,45.578,16.885c0.012,4.33,3.495,7.866,7.84,7.927c0.038,0.001,0.076,0.001,0.113,0.001
	c4.34,0,7.887-3.487,7.949-7.839c0.204-14.466-19.361-25.399-58.175-32.542c4.125-18.156,9.209-36.322,15.225-54.472
	c20.976-4.179,40.038-8.969,56.195-14.175c38.063-12.266,55.864-25.32,54.424-39.91c-0.029-0.284-0.072-0.563-0.128-0.838
	c-1.418-9.521-10.713-16.612-28.421-21.645c-12.005-3.412-28.252-5.937-47.438-7.407c8.441-17.084,17.197-33.083,25.919-47.902
	c39.843-7.406,60.771-19.064,62.354-34.786c0.04-0.257,0.069-0.517,0.085-0.782C487.056,132.762,480.069,123.671,465.164,115.169z
	 M85.544,142.522c-8.09-2.573-15.337-5.245-21.584-7.989c-19.27-8.463-24.134-15.412-23.97-18.183
	c0.131-2.217,3.724-6.338,13.416-10.651c8.311-3.699,19.94-7.033,34.014-9.785C85.138,109.707,84.526,125.421,85.544,142.522z
	 M110.923,303.428c-15.802-4.086-19.577-8.561-19.664-9.451c-0.007-0.069,1.141-6.953,27.05-17.327
	c4.2,10.378,8.71,20.632,13.525,30.742C123.929,306.297,116.899,304.972,110.923,303.428z M177.387,406.27
	c-19.795-5.354-26.085-10.811-26.962-12.604c0.888-1.712,6.812-6.55,24.501-11.138c6.418,9.448,13.113,18.686,20.064,27.698
	C188.64,409.035,182.725,407.714,177.387,406.27z M458.264,257.731c0.175,1.768-7.012,11.458-43.474,23.209
	c-13.223,4.261-28.494,8.238-45.226,11.821c5.745-15.739,12.187-31.459,19.344-47.144c0.599-1.314,1.205-2.612,1.81-3.914
	C445.104,245.068,458.024,255.295,458.264,257.731z M414.094,163.958c-7.266,1.197-15.408,2.309-24.531,3.295
	c-4.366,0.472-7.523,4.394-7.052,8.76c0.441,4.077,3.888,7.098,7.896,7.098c0.285,0,0.575-0.015,0.864-0.047
	c4.335-0.469,8.508-0.974,12.551-1.51c-8.518,15.032-16.991,31.157-25.111,48.295c-0.06,0.118-0.116,0.237-0.17,0.358
	c-1.376,2.909-2.747,5.838-4.101,8.806c-8.706,19.078-16.383,38.213-23.053,57.377c-18.758,3.487-38.935,6.484-59.85,8.857
	c-4.364,0.495-7.5,4.434-7.005,8.797c0.46,4.06,3.901,7.056,7.891,7.056c0.299,0,0.601-0.017,0.905-0.051
	c18.112-2.054,35.705-4.575,52.351-7.476c-5.832,18.461-10.724,36.939-14.655,55.409c-0.084,0.298-0.157,0.601-0.207,0.915
	c-0.008,0.05-0.01,0.099-0.016,0.148c-8.039,38.136-12.014,76.233-11.863,114.062c0.019,4.662-2.473,8.674-6.663,10.732
	c-4.201,2.064-8.914,1.58-12.604-1.293c-24.609-19.167-46.772-40.192-66.596-62.33c4.543,0.376,9.158,0.703,13.845,0.963
	c0.151,0.008,0.299,0.013,0.447,0.013c4.19,0,7.697-3.276,7.932-7.512c0.244-4.385-3.114-8.136-7.499-8.38
	c-10.281-0.57-20.265-1.441-29.704-2.571c-23.211-28.284-42.814-58.01-58.927-87.773c4.434,0.264,8.998,0.479,13.698,0.637
	c0.091,0.003,0.181,0.004,0.271,0.004c4.269,0,7.798-3.386,7.942-7.685c0.147-4.389-3.291-8.067-7.68-8.215
	c-8.043-0.27-15.675-0.701-22.827-1.282c-25.749-51.6-41.137-102.496-46.984-145.276c10.498,2.648,21.856,5.136,33.946,7.416
	c0.498,0.093,0.995,0.139,1.483,0.139c3.748,0,7.086-2.662,7.805-6.479c0.814-4.315-2.025-8.473-6.34-9.288
	c-14.047-2.65-27.036-5.567-38.732-8.685c-1.856-22.895-0.702-42.873,3.331-58.575c0.123-0.351,0.214-0.716,0.287-1.085
	c1.8-6.698,4.126-12.605,6.985-17.589c16.819-29.329,73.982-49.276,152.914-53.357c9.673-0.5,19.351-0.744,28.974-0.744
	c64.608,0,126.45,11.019,163.039,29.669c7.072,3.605,12.174,10.138,13.997,17.922c1.856,7.926,0.137,16.216-4.719,22.747
	c-5.526,7.432-11.632,15.794-18.118,25.032c-1.136,0.777-2.089,1.851-2.713,3.188c-0.217,0.464-0.381,0.94-0.501,1.42
	C435.414,130.024,424.824,146.099,414.094,163.958z M470.585,141.867c-0.195,3.281-7.756,11.026-35.2,17.796
	c7.065-11.292,14-21.774,20.611-31.393C467.586,134.647,470.715,139.683,470.585,141.867L470.585,141.867z M356.047,177.916
	c-0.186-4.387-3.89-7.809-8.282-7.607c-29.841,1.267-61.757,0.915-94.857-1.046c-4.382-0.252-8.149,3.084-8.408,7.467
	c-0.26,4.384,3.083,8.149,7.467,8.409c20.448,1.212,40.458,1.818,59.832,1.818c12.496,0,24.729-0.252,36.64-0.758
	C352.828,186.011,356.233,182.304,356.047,177.916z"/>
<g>
</g>
<g>
</g>
<g>
</g>
<g>
</g>
<g>
</g>
<g>
</g>
<g>
</g>
<g>
</g>
<g>
</g>
<g>
</g>
<g>
</g>
<g>
</g>
<g>
</g>
<g>
</g>
<g>
</g>
</svg>
